Coordinates
version=1
nRows=9
nColumns=38
inDegrees=yes

Units are S.I. units (second, meters, Newtons, ...)
Angles are in degrees.

endheader
time	pelvis_tilt	pelvis_list	pelvis_rotation	pelvis_tx	pelvis_ty	pelvis_tz	hip_flexion_r	hip_adduction_r	hip_rotation_r	knee_angle_r	ankle_angle_r	subtalar_angle_r	mtp_angle_r	hip_flexion_l	hip_adduction_l	hip_rotation_l	knee_angle_l	ankle_angle_l	subtalar_angle_l	mtp_angle_l	lumbar_extension	lumbar_bending	lumbar_rotation	arm_flex_r	arm_add_r	arm_rot_r	elbow_flex_r	pro_sup_r	wrist_flex_r	wrist_dev_r	arm_flex_l	arm_add_l	arm_rot_l	elbow_flex_l	pro_sup_l	wrist_flex_l	wrist_dev_l
      5.22000000	     11.80624861	     -0.72560474	     -0.43781731	     -0.17182753	      0.91590348	      0.00895883	    -15.85809216	      2.77459248	     -6.45182116	     -2.16762917	      0.36420486	      0.00000000	      0.00000000	    -13.99335116	     -1.24640801	    -10.44030271	     -5.18400877	     -1.31528522	      0.00000000	      0.00000000	    -22.22845746	     -1.25906157	      2.32055520	      1.74333081	     -2.69722961	    -18.13058435	     33.23017167	    113.44673091	      0.00000000	      0.00000000	      5.97851830	     -2.06702896	    -20.76237018	     30.23873832	    113.51584553	      0.00000000	      0.00000000
      5.23000000	     11.83385187	     -0.75011637	     -0.46011400	     -0.17158954	      0.91591389	      0.00893437	    -15.90816632	      2.79088826	     -6.44027802	     -2.15970727	      0.37513273	      0.00000000	      0.00000000	    -14.05110273	     -1.26164556	    -10.46302250	     -5.17329422	     -1.33058273	      0.00000000	      0.00000000	    -22.21519291	     -1.25178457	      2.32851538	      1.72856609	     -2.69607067	    -18.15252554	     33.19284804	    113.40291624	      0.00000000	      0.00000000	      5.97611500	     -2.05467017	    -20.77702181	     30.22984305	    113.52707845	      0.00000000	      0.00000000
      5.24000000	     11.85807134	     -0.77777081	     -0.47694594	     -0.17141165	      0.91592831	      0.00887609	    -15.94906613	      2.81084501	     -6.43152030	     -2.15359627	      0.38507081	      0.00000000	      0.00000000	    -14.09958220	     -1.27938703	    -10.47699806	     -5.16239516	     -1.35197203	      0.00000000	      0.00000000	    -22.20352319	     -1.23659311	      2.33506433	      1.71722961	     -2.69536430	    -18.17368042	     33.15911781	    113.36162639	      0.00000000	      0.00000000	      5.97782994	     -2.04125986	    -20.79184982	     30.22086578	    113.53601247	      0.00000000	      0.00000000
      5.25000000	     11.88052986	     -0.80549914	     -0.48954096	     -0.17128740	      0.91592662	      0.00879515	    -15.98376421	      2.83085430	     -6.42236601	     -2.14878711	      0.39344214	      0.00000000	      0.00000000	    -14.14312782	     -1.29603250	    -10.48639452	     -5.14866732	     -1.37631346	      0.00000000	      0.00000000	    -22.19457181	     -1.21808303	      2.34198644	      1.70606987	     -2.69551450	    -18.19274251	     33.13002245	    113.32427484	      0.00000000	      0.00000000	      5.98445233	     -2.02747624	    -20.80579119	     30.21135467	    113.54227251	      0.00000000	      0.00000000
      5.26000000	     11.90296075	     -0.83020990	     -0.50261884	     -0.17115864	      0.91591218	      0.00871411	    -16.01782982	      2.84688881	     -6.41026982	     -2.14473475	      0.40001787	      0.00000000	      0.00000000	    -14.18967209	     -1.30784383	    -10.49695055	     -5.12864537	     -1.40005469	      0.00000000	      0.00000000	    -22.18840878	     -1.20181519	      2.35185364	      1.69141921	     -2.69671284	    -18.20852943	     33.10562063	    113.29209317	      0.00000000	      0.00000000	      5.99490607	     -2.01425927	    -20.81827961	     30.20080754	    113.54570051	      0.00000000	      0.00000000
      5.27000000	     11.92722555	     -0.84980792	     -0.52298073	     -0.17097240	      0.91590171	      0.00864952	    -16.05671915	      2.85552008	     -6.39344586	     -2.14089187	      0.40488424	      0.00000000	      0.00000000	    -14.24701744	     -1.31169274	    -10.51436872	     -5.09895635	     -1.42010506	      0.00000000	      0.00000000	    -22.18471650	     -1.19282861	      2.36737453	      1.67063374	     -2.69912639	    -18.22015834	     33.08502176	    113.26599701	      0.00000000	      0.00000000	      6.00650816	     -2.00238813	    -20.82929213	     30.18897903	    113.54634320	      0.00000000	      0.00000000
      5.28000000	     11.95516881	     -0.86396051	     -0.55594021	     -0.17073564	      0.91590751	      0.00860457	    -16.10310547	      2.85482510	     -6.37090357	     -2.13659133	      0.40825091	      0.00000000	      0.00000000	    -14.31932874	     -1.30593682	    -10.54257360	     -5.05755706	     -1.43469413	      0.00000000	      0.00000000	    -22.18349339	     -1.19408618	      2.39041987	      1.64308679	     -2.70291703	    -18.22721826	     33.06658466	    113.24647120	      0.00000000	      0.00000000	      6.01601836	     -1.99228381	    -20.83920901	     30.17615882	    113.54443030	      0.00000000	      0.00000000
      5.29000000	     11.98748352	     -0.87380612	     -0.60262422	     -0.17048508	      0.91593772	      0.00857095	    -16.15604726	      2.84503758	     -6.34253652	     -2.13122609	      0.41022745	      0.00000000	      0.00000000	    -14.40572494	     -1.29120722	    -10.58253205	     -5.00477171	     -1.44389348	      0.00000000	      0.00000000	    -22.18496329	     -1.20540998	      2.42109215	      1.61031634	     -2.70804279	    -18.22989412	     33.04823334	    113.23349552	      0.00000000	      0.00000000	      6.02098460	     -1.98410099	    -20.84855627	     30.16325518	    113.54034295	      0.00000000	      0.00000000
      5.30000000	     12.02269387	     -0.88114599	     -0.65945231	     -0.17024140	      0.91598892	      0.00853677	    -16.21202622	      2.82875806	     -6.30924955	     -2.12461304	      0.41073681	      0.00000000	      0.00000000	    -14.50090567	     -1.27044601	    -10.63208266	     -4.94341094	     -1.44956243	      0.00000000	      0.00000000	    -22.18886747	     -1.22357633	      2.45719581	      1.57533067	     -2.71398864	    -18.22900326	     33.02781568	    113.22652470	      0.00000000	      0.00000000	      6.02072995	     -1.97796708	    -20.85774501	     30.15161156	    113.53457256	      0.00000000	      0.00000000
